<?xml version="1.0" encoding="UTF-8"?>
<svg id="Layer_1" data-name="Layer 1" xmlns="http://www.w3.org/2000/svg" xmlns:xlink="http://www.w3.org/1999/xlink" viewBox="0 0 1417.32 731.12">
  <defs>
    <style>
      .cls-1 {
        fill: #fffac2;
      }

      .cls-1, .cls-2, .cls-3, .cls-4, .cls-5, .cls-6 {
        stroke-width: 0px;
      }

      .cls-2 {
        fill: #c1a102;
      }

      .cls-3 {
        fill: #1351b6;
      }

      .cls-4 {
        fill: none;
      }

      .cls-7 {
        clip-path: url(#clippath-1);
      }

      .cls-5 {
        fill: #4c4c4c;
      }

      .cls-8 {
        clip-path: url(#clippath);
      }

      .cls-6 {
        fill: #d30826;
      }
    </style>
    <clipPath id="clippath">
      <rect class="cls-4" width="1417.32" height="731.12"/>
    </clipPath>
    <clipPath id="clippath-1">
      <rect class="cls-4" width="1417.32" height="731.12"/>
    </clipPath>
  </defs>
  <g class="cls-8">
    <g class="cls-7">
      <path class="cls-6" d="M368.2,483.06h-6.98l-.04-6.98v-39.63h13.96v32.33c37.11-3.52,66.22-34.84,66.22-72.83v-101.3h-66.22v26.51h-13.96v-40.46h94.13v115.26c0,48.03-39.08,87.11-87.11,87.11"/>
      <polygon class="cls-6" points="414.36 430.06 369.35 372.83 415.59 327.13 425.4 337.05 388.02 373.99 425.33 421.44 414.36 430.06"/>
      <rect class="cls-6" x="361.19" y="330.02" width="13.95" height="97.23"/>
      <path class="cls-3" d="M352.04,483.06h-6.98c-48.07,0-87.15-39.08-87.15-87.11v-115.26h94.13v40.46h-13.96v-26.51h-66.22v101.3c0,38,29.12,69.33,66.22,72.83v-32.33h13.96v46.61Z"/>
      <rect class="cls-3" x="338.09" y="330.02" width="13.95" height="97.23"/>
      <path class="cls-3" d="M321.41,427.24c-16.89,0-30.63-13.74-30.63-30.63v-66.59h13.96v66.59c0,9.2,7.48,16.68,16.68,16.68s16.68-7.48,16.68-16.68v-66.59h13.96v66.59c0,16.89-13.74,30.63-30.63,30.63"/>
      <rect class="cls-5" x="554.41" y="200.5" width="1.99" height="329.74"/>
      <path class="cls-5" d="M836.05,344.71l14.89-63.52h18.97l14.71,63.52h-15.95l-2-12.17h-12.54l-1.99,12.17h-16.09ZM855.77,321.07h9.17l-4.56-27.72-4.61,27.72Z"/>
      <path class="cls-5" d="M912.1,325.94h14.09c0,.25.02.57.04.97.03.4.04.69.04.89,0,6.11-1.52,10.66-4.57,13.67-3.04,3.01-7.67,4.52-13.87,4.52-7,0-11.93-1.85-14.78-5.55-2.85-3.7-4.28-10.22-4.28-19.57s1.43-15.88,4.3-19.59c2.86-3.71,7.78-5.57,14.76-5.57,6.26,0,10.87,1.49,13.83,4.48,2.95,2.98,4.43,7.64,4.43,13.96v.82h-13.83v-1.36c0-2.86-.33-4.9-1-6.11-.67-1.21-1.78-1.81-3.35-1.81-1.8,0-3.02.81-3.66,2.43-.64,1.62-.95,5.87-.95,12.75s.32,10.8.95,12.6c.64,1.8,1.82,2.7,3.57,2.7,1.51,0,2.61-.64,3.3-1.92.69-1.28,1.04-3.31,1.04-6.08,0-.22-.01-.58-.04-1.07-.03-.5-.04-.88-.04-1.16"/>
      <path class="cls-5" d="M959.78,344.71l-.84-4.37c-1.8,1.76-3.78,3.09-5.92,3.98-2.14.89-4.47,1.34-6.98,1.34-4.02,0-7.2-1.21-9.55-3.63s-3.52-5.69-3.52-9.82c0-3.6,1-6.57,2.99-8.91,1.99-2.34,5.27-4.36,9.82-6.06,1.09-.39,2.57-.89,4.43-1.53,5.35-1.82,8.02-3.86,8.02-6.15,0-1.4-.39-2.47-1.15-3.2-.77-.73-1.88-1.09-3.32-1.09-1.74,0-3.04.49-3.88,1.46-.84.98-1.26,2.48-1.26,4.52v.33h-14.36c0-5.39,1.61-9.4,4.83-12.03,3.22-2.63,8.11-3.94,14.67-3.94,2.95,0,5.59.26,7.91.76,2.32.51,4.26,1.24,5.83,2.21,2.01,1.27,3.42,2.79,4.23,4.58.81,1.79,1.22,5.05,1.22,9.77v18.4c0,3.74.14,6.59.42,8.56.28,1.97.75,3.57,1.4,4.81h-14.98ZM957.96,321.73c-3.69.96-6.39,2.16-8.09,3.59-1.7,1.43-2.55,3.22-2.55,5.36,0,1.51.42,2.72,1.26,3.63.84.91,1.97,1.36,3.39,1.36,2.1,0,3.62-.66,4.57-1.98.95-1.32,1.42-3.53,1.42-6.64v-5.32Z"/>
      <path class="cls-5" d="M1019.21,281.19v63.52h-13.16v-5.24c-1.36,2.14-3.02,3.78-4.99,4.91-1.96,1.13-4.14,1.69-6.54,1.69-2.01,0-3.83-.34-5.47-1.01-1.64-.67-3.02-1.63-4.14-2.87-1.27-1.48-2.16-3.47-2.68-5.96-.52-2.49-.78-7.16-.78-14.01,0-10.78.98-17.87,2.92-21.26,1.95-3.4,5.45-5.1,10.5-5.1,2.16,0,4.05.45,5.67,1.34,1.62.89,3.09,2.28,4.39,4.15v-20.17h14.27ZM1000.59,307.21c-1.8,0-3.04.87-3.7,2.6-.66,1.73-1,5.57-1,11.51s.31,10.04.93,11.57,1.76,2.29,3.41,2.29c1.89,0,3.2-.92,3.92-2.76.72-1.84,1.09-6.69,1.09-14.56,0-4.04-.35-6.83-1.04-8.35-.7-1.53-1.9-2.29-3.61-2.29"/>
      <path class="cls-5" d="M1051.82,327.96h13.43v1.2c0,5.58-1.57,9.78-4.7,12.6-3.13,2.82-7.8,4.23-14,4.23-3.13,0-5.97-.41-8.51-1.24-2.54-.82-4.52-1.97-5.94-3.42-1.59-1.68-2.73-3.9-3.41-6.68-.68-2.78-1.02-7.22-1.02-13.32,0-6.74.35-11.44,1.04-14.11.69-2.67,1.88-4.87,3.57-6.6,1.62-1.62,3.68-2.85,6.18-3.67,2.5-.83,5.4-1.24,8.71-1.24s6.28.45,8.73,1.34c2.45.89,4.45,2.22,5.98,3.98,1.3,1.49,2.23,3.26,2.79,5.32.56,2.06.84,5.58.84,10.56v5.73h-23.31c-.03.14-.05.32-.05.54-.12,2.01-.18,3.41-.18,4.21,0,3.36.38,5.69,1.15,6.99.77,1.31,2.08,1.96,3.94,1.96,1.63,0,2.85-.5,3.68-1.51.83-1,1.24-2.52,1.24-4.56,0-.41-.04-1.04-.13-1.9-.03-.16-.04-.3-.04-.41M1042.56,314.39h9.62v-.25c.12-1.21.18-2.06.18-2.56,0-2.34-.41-4.06-1.22-5.18-.81-1.11-2.08-1.67-3.79-1.67s-2.99.54-3.74,1.63c-.75,1.09-1.13,2.88-1.13,5.38,0,.69,0,1.22.02,1.61.02.38.04.73.07,1.03"/>
      <path class="cls-5" d="M1074.16,344.71v-47.73h12.67v5.65c1.54-2.28,3.25-3.95,5.14-5.01,1.89-1.06,4.12-1.59,6.69-1.59,2.33,0,4.35.56,6.05,1.69,1.7,1.13,3.01,2.76,3.92,4.91,1.54-2.26,3.27-3.92,5.21-4.99,1.93-1.07,4.16-1.61,6.67-1.61,3.81,0,6.6,1.22,8.35,3.67,1.76,2.45,2.64,6.35,2.64,11.71v33.29h-13.69v-30.24c0-3.41-.26-5.56-.78-6.45-.52-.89-1.41-1.34-2.68-1.34-1.54,0-2.74.73-3.61,2.19-.87,1.46-1.31,3.46-1.31,6.02v29.82h-13.43v-30.24c0-3.41-.25-5.56-.75-6.45-.5-.89-1.4-1.34-2.7-1.34-1.51,0-2.7.73-3.57,2.19-.87,1.46-1.31,3.46-1.31,6.02v29.82h-13.52Z"/>
      <path class="cls-5" d="M1140.59,280.69h14.22v11.55h-14.22v-11.55ZM1140.59,296.98h14.22v47.73h-14.22v-47.73Z"/>
      <path class="cls-5" d="M1186.5,325.94h14.09c0,.25.02.57.04.97.03.4.04.69.04.89,0,6.11-1.52,10.66-4.56,13.67-3.04,3.01-7.67,4.52-13.87,4.52-7,0-11.93-1.85-14.78-5.55-2.85-3.7-4.28-10.22-4.28-19.57s1.43-15.88,4.3-19.59c2.86-3.71,7.78-5.57,14.76-5.57,6.26,0,10.87,1.49,13.83,4.48,2.95,2.98,4.43,7.64,4.43,13.96v.82h-13.83v-1.36c0-2.86-.33-4.9-1-6.11-.67-1.21-1.78-1.81-3.35-1.81-1.8,0-3.02.81-3.66,2.43-.64,1.62-.95,5.87-.95,12.75s.32,10.8.95,12.6c.64,1.8,1.82,2.7,3.57,2.7,1.51,0,2.61-.64,3.3-1.92.69-1.28,1.04-3.31,1.04-6.08,0-.22-.02-.58-.05-1.07-.03-.5-.04-.88-.04-1.16"/>
      <path class="cls-5" d="M836.05,436.39v-61.68h14.91c5.5,0,9.57.23,12.19.68,2.63.45,4.84,1.21,6.63,2.28,2.39,1.39,4.2,3.45,5.45,6.19,1.25,2.74,1.87,6,1.87,9.79,0,6.25-1.73,10.99-5.2,14.24-3.47,3.24-8.56,4.87-15.27,4.87h-5.35v23.63h-15.24ZM851.3,401.26c.22.03.48.05.78.08.29.03.71.04,1.24.04,3.03,0,5.22-.67,6.57-2.02,1.35-1.35,2.02-3.52,2.02-6.51,0-2.48-.72-4.27-2.15-5.37-1.43-1.09-3.82-1.64-7.16-1.64h-1.31v15.42Z"/>
      <path class="cls-5" d="M918.16,390.05v46.34h-12.76v-5.49c-1.52,2.22-3.22,3.84-5.09,4.87-1.88,1.03-4.1,1.54-6.65,1.54-3.76,0-6.53-1.2-8.3-3.6-1.77-2.4-2.65-6.18-2.65-11.33v-32.32h13.64v28.64c0,3.71.25,6.01.76,6.91.51.89,1.4,1.34,2.7,1.34,1.52,0,2.7-.69,3.56-2.08.86-1.39,1.28-3.34,1.28-5.85v-28.96h13.52Z"/>
      <path class="cls-5" d="M927.68,374.71h13.6v19.58c1.23-1.82,2.63-3.16,4.19-4.03,1.56-.87,3.36-1.3,5.41-1.3,4.8,0,8.13,1.65,9.98,4.95,1.85,3.3,2.78,10.18,2.78,20.65,0,4.86-.14,8.57-.42,11.13-.28,2.56-.71,4.46-1.3,5.69-1.01,2.08-2.41,3.66-4.21,4.73-1.8,1.07-3.96,1.6-6.48,1.6-2.3,0-4.38-.55-6.23-1.64-1.85-1.09-3.42-2.68-4.72-4.77v5.09h-12.59v-61.68ZM945.41,399.98c-1.6,0-2.73.74-3.39,2.22-.66,1.48-.99,4.18-.99,8.11,0,7.64.34,12.35,1.03,14.14.69,1.79,1.93,2.68,3.73,2.68,1.52,0,2.57-.68,3.16-2.04.59-1.36.89-4.49.89-9.37v-1.24c0-6.54-.31-10.59-.93-12.16-.62-1.56-1.78-2.34-3.49-2.34"/>
      <rect class="cls-5" x="971.85" y="374.71" width="13.52" height="61.68"/>
      <path class="cls-5" d="M994.64,374.23h13.52v11.21h-13.52v-11.21ZM994.64,390.05h13.52v46.34h-13.52v-46.34Z"/>
      <path class="cls-5" d="M1014.47,421.69l12.17.04c.14,2.4.63,4.16,1.47,5.27.84,1.11,2.11,1.66,3.79,1.66,1.35,0,2.46-.38,3.33-1.14.87-.76,1.31-1.74,1.31-2.94,0-1.04-.3-1.9-.91-2.58-.6-.68-1.94-1.49-4.02-2.42-.45-.21-1.15-.53-2.11-.96-4.91-2.16-8.34-4.19-10.27-6.09-1.38-1.28-2.43-2.78-3.16-4.49-.73-1.71-1.1-3.5-1.1-5.37,0-4.22,1.51-7.58,4.53-10.09,3.02-2.51,7.1-3.77,12.23-3.77s9.44,1.21,12.32,3.63c2.88,2.42,4.32,5.88,4.32,10.39v.84l-11.92-.04c-.06-2.32-.43-3.98-1.12-4.97-.69-.99-1.8-1.48-3.35-1.48-1.38,0-2.47.35-3.28,1.06-.81.71-1.22,1.64-1.22,2.78,0,2.03,2.04,3.9,6.1,5.61.56.24,1,.43,1.31.56,5.56,2.38,9.28,4.69,11.16,6.93,1.88,2.24,2.82,5.18,2.82,8.81,0,4.67-1.52,8.29-4.55,10.85-3.03,2.56-7.36,3.85-12.97,3.85s-9.48-1.29-12.44-3.88c-2.96-2.59-4.44-6.22-4.44-10.89v-1.16Z"/>
      <path class="cls-5" d="M1054.98,436.39v-61.68h13.56v20.27c1.15-1.95,2.63-3.41,4.44-4.39,1.81-.97,3.98-1.46,6.51-1.46,3.76,0,6.51,1.2,8.25,3.58,1.74,2.39,2.61,6.18,2.61,11.35v32.32h-13.52v-28.64c0-3.71-.25-6.02-.76-6.93-.51-.91-1.41-1.36-2.69-1.36-1.52,0-2.7.7-3.56,2.1-.86,1.4-1.29,3.36-1.29,5.87v28.96h-13.56Z"/>
      <path class="cls-5" d="M1098.81,374.23h13.52v11.21h-13.52v-11.21ZM1098.81,390.05h13.52v46.34h-13.52v-46.34Z"/>
      <path class="cls-5" d="M1121.68,436.39v-46.34h12.76v5.49c1.49-2.19,3.19-3.8,5.09-4.85,1.91-1.04,4.14-1.56,6.7-1.56,3.76,0,6.51,1.2,8.25,3.58,1.74,2.39,2.61,6.18,2.61,11.35v32.32h-13.52v-28.64c0-3.71-.25-6.02-.76-6.93-.51-.91-1.4-1.36-2.69-1.36-1.52,0-2.7.7-3.56,2.1-.86,1.4-1.29,3.36-1.29,5.87v28.96h-13.6Z"/>
      <path class="cls-5" d="M1200.68,390.05v41.49c0,4.25-.24,7.39-.72,9.43-.48,2.04-1.28,3.77-2.4,5.19-1.57,1.92-3.67,3.37-6.3,4.35-2.63.97-5.79,1.46-9.5,1.46-5.7,0-9.94-1.11-12.72-3.32-2.78-2.22-4.17-5.62-4.17-10.21h13.43c0,1.74.33,3,.99,3.8.66.8,1.69,1.2,3.09,1.2,1.74,0,2.95-.53,3.62-1.58.67-1.06,1.01-3.12,1.01-6.19v-5.45c-1.8,1.55-3.5,2.68-5.12,3.38-1.61.71-3.26,1.06-4.95,1.06-2.36,0-4.45-.61-6.27-1.82-1.83-1.21-3.24-2.96-4.25-5.23-.53-1.2-.93-2.93-1.18-5.19-.25-2.25-.38-5.17-.38-8.75s.09-6.51.27-9.21c.18-2.7.43-4.89.74-6.57.53-2.59,1.82-4.73,3.85-6.41,2.03-1.68,4.37-2.52,7.01-2.52,2.16,0,4.18.51,6.04,1.52,1.87,1.02,3.69,2.59,5.45,4.73v-5.17h12.42ZM1178.57,407.11v3.36c0,6.06.3,9.91.9,11.55s1.69,2.46,3.26,2.46,2.72-.73,3.35-2.18c.63-1.46.95-4.53.95-9.23v-1.88c0-5.02-.3-8.18-.91-9.49-.6-1.31-1.71-1.96-3.31-1.96-1.46,0-2.53.58-3.22,1.74-.69,1.16-1.03,3.04-1.03,5.63"/>
      <path class="cls-5" d="M659.23,439.32c-14.25,0-25.32-4.01-32.9-11.91-7.54-7.86-11.36-19.27-11.36-33.92v-112.8h19.61v103.57c0,8.44.29,14.34.87,17.54.54,3.02,1.43,5.64,2.65,7.8,2.1,3.53,4.89,6.22,8.51,8.15,3.63,1.94,7.88,2.93,12.63,2.93s8.93-1,12.63-2.97c3.68-1.96,6.47-4.64,8.55-8.16,1.15-1.97,1.98-4.24,2.49-6.75.53-2.67.8-6.61.8-11.73v-110.37h19.61v112.8c0,14.58-3.82,25.97-11.36,33.86-7.58,7.94-18.59,11.96-32.71,11.96"/>
      <path class="cls-5" d="M699.67,284.32v109.17c0,13.68-3.45,24.13-10.35,31.35-6.9,7.23-16.93,10.84-30.09,10.84s-23.38-3.6-30.28-10.79c-6.9-7.19-10.35-17.66-10.35-31.4v-109.17h12.35v99.94c0,8.68.31,14.74.92,18.18.61,3.43,1.64,6.42,3.06,8.95,2.46,4.15,5.78,7.34,9.96,9.57,4.18,2.24,8.96,3.36,14.34,3.36s10.09-1.13,14.34-3.4c4.24-2.27,7.57-5.44,9.97-9.53,1.36-2.33,2.33-4.96,2.92-7.88.58-2.92.88-7.06.88-12.44v-106.74h12.35Z"/>
      <polygon class="cls-5" points="795.95 436.3 757.08 361.83 743.46 380.3 743.46 436.3 723.84 436.3 723.84 280.69 743.46 280.69 743.46 349.31 793.58 280.69 816.69 280.69 769.56 345.01 817.38 436.3 795.95 436.3"/>
      <polygon class="cls-5" points="727.48 432.67 727.48 284.32 739.82 284.32 739.82 360.44 795.43 284.32 809.53 284.32 765.29 344.69 811.37 432.67 798.15 432.67 757.61 355 739.82 379.11 739.82 432.67 727.48 432.67"/>
      <path class="cls-2" d="M496.07,280.84c-8.81.63-14.92,8.89-13.86,16.92,8.81-.63,14.92-8.89,13.86-16.92"/>
      <path class="cls-2" d="M465.34,280.84c8.81.63,14.92,8.89,13.86,16.92-8.81-.63-14.92-8.89-13.86-16.92"/>
      <path class="cls-2" d="M496.07,298.03c-8.81.63-14.92,8.89-13.86,16.92,8.81-.63,14.92-8.89,13.86-16.92"/>
      <path class="cls-2" d="M465.34,298.03c8.81.63,14.92,8.89,13.86,16.92-8.81-.63-14.92-8.89-13.86-16.92"/>
      <path class="cls-2" d="M496.07,315.22c-8.81.63-14.92,8.89-13.86,16.92,8.81-.63,14.92-8.89,13.86-16.92"/>
      <path class="cls-2" d="M465.34,315.22c8.81.63,14.92,8.89,13.86,16.92-8.81-.63-14.92-8.89-13.86-16.92"/>
      <path class="cls-2" d="M496.07,332.41c-8.81.63-14.92,8.89-13.86,16.92,8.81-.63,14.92-8.89,13.86-16.92"/>
      <path class="cls-2" d="M465.34,332.41c8.81.63,14.92,8.89,13.86,16.92-8.81-.63-14.92-8.89-13.86-16.92"/>
      <path class="cls-2" d="M496.07,349.59c-8.81.63-14.92,8.89-13.86,16.92,8.81-.63,14.92-8.89,13.86-16.92"/>
      <path class="cls-2" d="M465.34,349.59c8.81.63,14.92,8.89,13.86,16.92-8.81-.63-14.92-8.89-13.86-16.92"/>
      <path class="cls-2" d="M496.07,366.78c-8.81.63-14.92,8.89-13.86,16.92,8.81-.63,14.92-8.89,13.86-16.92"/>
      <path class="cls-2" d="M465.34,366.78c8.81.63,14.92,8.89,13.86,16.92-8.81-.63-14.92-8.89-13.86-16.92"/>
      <path class="cls-2" d="M496.07,383.97c-4.42.33-8.1,2.5-10.66,5.72-1.29,1.61-2.28,3.43-2.89,5.34-.15.48-.28.96-.39,1.45-.12.49-.23.98-.31,1.48-.16,1-.22,2.01-.17,3.03,2.21.02,4.29-.46,6.16-1.37,1.85-.91,3.59-2.25,4.85-3.89,1.29-1.64,2.29-3.59,2.9-5.68.15-.52.28-1.06.39-1.59.09-.49.16-.98.2-1.48.08-.99.06-2-.07-3.01"/>
      <path class="cls-2" d="M465.34,383.97c4.39.3,8.16,2.57,10.6,5.65,1.21,1.53,2.1,3.33,2.62,5.24.13.48.23.96.31,1.45.06.49.08.98.09,1.47,0,.99-.1,1.98-.3,2.96-2.18-.34-4.16-1.12-5.88-2.18-1.74-1.06-3.12-2.39-4.37-3.9-1.21-1.5-2.11-3.17-2.63-4.9-.13-.43-.23-.87-.31-1.32-.09-.49-.16-.98-.2-1.48-.08-.99-.06-2,.07-3.01"/>
      <path class="cls-2" d="M495.44,402.44c-4.45-.02-8.23,2.04-11.2,4.94-1.47,1.46-2.61,3.15-3.47,4.98-.92,1.82-1.48,3.78-1.61,5.83,4.36.62,8.46-.9,11.57-3.89,1.54-1.48,2.68-3.33,3.54-5.36.42-1.02.75-2.08.97-3.17.17-1.09.24-2.21.2-3.33"/>
      <path class="cls-2" d="M464.82,399.84c4.34.64,8.01,3.03,10.02,6.36,1.03,1.66,1.75,3.56,2.01,5.51.2,1.94,0,3.95-.63,5.85-4.24-1.24-7.5-4.08-9.42-7.28-.97-1.61-1.74-3.36-2.06-5.12-.17-.88-.23-1.77-.2-2.65-.02-.89.07-1.79.28-2.67"/>
      <path class="cls-2" d="M492.66,421.38c-4.33-.56-8.59.97-11.79,3.49-.81.63-1.52,1.34-2.23,2.08-.72.74-1.36,1.54-1.92,2.38-1.13,1.69-1.86,3.58-2.39,5.56,2.12.61,4.26.7,6.33.31,2.05-.39,3.94-1.29,5.66-2.57,3.5-2.53,5.83-6.74,6.34-11.24"/>
      <path class="cls-2" d="M462.62,414.89c4.3,1.2,7.41,3.96,9.09,7.56.41.89.77,1.84.96,2.79.18.95.27,1.93.26,2.91-.03,1.96-.42,3.95-1.42,5.7-2.01-.91-3.7-2.18-5.07-3.64-1.38-1.46-2.52-3.14-3.27-4.86-1.46-3.43-1.88-7.15-.54-10.46"/>
      <path class="cls-2" d="M487.23,439.96c-2.13-.6-4.28-.65-6.34-.3-2.07.34-3.95,1.11-5.81,2.11-1.82,1.01-3.43,2.3-4.74,3.83-1.39,1.49-2.51,3.2-3.21,5.13,3.99,1.86,8.36,1.56,12.22-.45,1.86-1.03,3.54-2.5,4.94-4.25.35-.44.68-.9.99-1.37.29-.48.55-.98.79-1.49.48-1.02.87-2.1,1.15-3.21"/>
      <path class="cls-2" d="M458.42,429.28c2.02.89,3.72,2.13,5.07,3.63,1.33,1.49,2.4,3.29,2.89,5.14.53,1.87.66,3.86.4,5.82-.35,1.92-1.13,3.78-2.28,5.41-3.7-2.41-6.02-6.06-6.96-9.62-.54-1.83-.76-3.66-.59-5.4.04-.43.11-.86.2-1.28.07-.43.16-.86.27-1.28.23-.84.55-1.65.99-2.41"/>
      <path class="cls-2" d="M468.37,473.97c-3.72-2.41-8.07-2.73-12.14-1.92-2.03.42-3.89,1.23-5.68,2.22-.88.51-1.7,1.1-2.46,1.76-.38.33-.74.69-1.08,1.06-.35.36-.71.73-1.03,1.13,1.63,1.47,3.54,2.51,5.55,3.04,1.99.52,4.12.56,6.23.16,1.05-.21,2.12-.49,3.12-.93.99-.44,1.96-.99,2.88-1.62.92-.63,1.79-1.36,2.59-2.17.78-.83,1.45-1.76,2.04-2.74"/>
      <path class="cls-2" d="M444.08,455.15c3.31,2.89,5.09,6.84,4.96,10.73-.02,3.94-1.93,7.78-5.15,10.17-1.42-1.7-2.36-3.56-2.98-5.5-.62-1.94-.88-3.92-.81-5.79.03-.94.18-1.83.34-2.74.17-.9.41-1.77.74-2.58s.75-1.58,1.25-2.28c.48-.72,1-1.41,1.64-2.01"/>
      <path class="cls-2" d="M479.14,457.68c-3.99-1.78-8.53-1.54-12.32-.05-1.86.77-3.76,1.74-5.3,3.04-.79.64-1.48,1.37-2.15,2.13-.68.75-1.28,1.57-1.8,2.46,1.84,1.22,3.85,1.94,5.93,2.17,1.04.12,2.1.12,3.15,0,1.03-.14,2.05-.39,3.06-.76,1.01-.37,1.99-.84,2.93-1.41.95-.57,1.86-1.23,2.64-2.02,1.58-1.57,2.97-3.44,3.85-5.56"/>
      <path class="cls-2" d="M452.26,442.79c3.77,2.38,5.95,5.91,6.53,9.84.33,1.98.05,3.91-.52,5.79-.31.93-.68,1.86-1.2,2.7-.53.83-1.16,1.61-1.87,2.31-1.65-1.47-2.89-3.19-3.76-5-.44-.9-.78-1.82-1.05-2.75-.29-.95-.49-1.89-.61-2.83-.12-.94-.15-1.86-.1-2.76.06-.89.21-1.76.38-2.63.36-1.73,1.13-3.28,2.21-4.67"/>
      <path class="cls-2" d="M455.36,488.41c-3.33-2.94-7.62-3.94-11.71-3.69-2.07.11-4.08.57-5.92,1.39-1.89.75-3.62,1.83-5.07,3.27,2.84,3.37,6.9,4.97,11.19,4.83,2.11-.12,4.25-.7,6.26-1.65,1.02-.46,1.95-1.08,2.83-1.79.88-.7,1.7-1.5,2.43-2.37"/>
      <path class="cls-2" d="M434.11,466.22c1.42,1.68,2.41,3.54,2.97,5.47.54,1.92.71,3.99.36,5.89-.34,1.91-1.09,3.77-2.18,5.42-1.14,1.59-2.64,2.95-4.37,3.94-2.34-3.75-2.87-8.05-2.15-11.73.32-1.88.93-3.64,1.86-5.15.48-.74.98-1.46,1.55-2.12.58-.65,1.23-1.24,1.96-1.74"/>
      <path class="cls-2" d="M247.5,280.84c-8.81.63-14.92,8.89-13.86,16.92,8.81-.63,14.92-8.89,13.86-16.92"/>
      <path class="cls-2" d="M216.76,280.84c8.81.63,14.92,8.89,13.86,16.92-8.81-.63-14.92-8.89-13.86-16.92"/>
      <path class="cls-2" d="M247.5,298.03c-8.81.63-14.92,8.89-13.86,16.92,8.81-.63,14.92-8.89,13.86-16.92"/>
      <path class="cls-2" d="M216.76,298.03c8.81.63,14.92,8.89,13.86,16.92-8.81-.63-14.92-8.89-13.86-16.92"/>
      <path class="cls-2" d="M247.5,315.22c-8.81.63-14.92,8.89-13.86,16.92,8.81-.63,14.92-8.89,13.86-16.92"/>
      <path class="cls-2" d="M216.76,315.22c8.81.63,14.92,8.89,13.86,16.92-8.81-.63-14.92-8.89-13.86-16.92"/>
      <path class="cls-2" d="M247.5,332.41c-8.81.63-14.92,8.89-13.86,16.92,8.81-.63,14.92-8.89,13.86-16.92"/>
      <path class="cls-2" d="M216.76,332.41c8.81.63,14.92,8.89,13.86,16.92-8.81-.63-14.92-8.89-13.86-16.92"/>
      <path class="cls-2" d="M247.5,349.59c-8.81.63-14.92,8.89-13.86,16.92,8.81-.63,14.92-8.89,13.86-16.92"/>
      <path class="cls-2" d="M216.76,349.59c8.81.63,14.92,8.89,13.86,16.92-8.81-.63-14.92-8.89-13.86-16.92"/>
      <path class="cls-2" d="M247.5,366.78c-8.81.63-14.92,8.89-13.86,16.92,8.81-.63,14.92-8.89,13.86-16.92"/>
      <path class="cls-2" d="M216.76,366.78c8.81.63,14.92,8.89,13.86,16.92-8.81-.63-14.92-8.89-13.86-16.92"/>
      <path class="cls-2" d="M247.5,383.97c-4.39.3-8.16,2.57-10.6,5.65-1.21,1.53-2.1,3.33-2.62,5.24-.13.48-.23.96-.31,1.45-.06.49-.08.98-.09,1.47,0,.99.09,1.98.3,2.96,2.18-.34,4.16-1.12,5.88-2.18,1.74-1.06,3.12-2.39,4.37-3.9,1.21-1.5,2.11-3.17,2.63-4.9.13-.43.23-.87.31-1.32.09-.49.16-.98.2-1.48.08-.99.06-2-.07-3.01"/>
      <path class="cls-2" d="M216.76,383.97c4.42.33,8.1,2.5,10.66,5.72,1.29,1.61,2.28,3.43,2.89,5.34.15.48.28.96.39,1.45.12.49.24.98.31,1.48.16,1,.22,2.01.17,3.03-2.21.02-4.29-.46-6.16-1.37-1.85-.91-3.59-2.25-4.85-3.89-1.29-1.64-2.29-3.59-2.9-5.68-.15-.52-.28-1.06-.39-1.59-.09-.49-.16-.98-.2-1.48-.08-.99-.06-2,.07-3.01"/>
      <path class="cls-2" d="M248.02,399.84c-4.34.64-8.01,3.03-10.02,6.36-1.03,1.66-1.75,3.56-2.01,5.51-.2,1.94,0,3.95.63,5.85,4.24-1.24,7.5-4.08,9.42-7.28.97-1.61,1.74-3.36,2.06-5.12.17-.88.23-1.77.2-2.65.01-.89-.07-1.79-.28-2.67"/>
      <path class="cls-2" d="M217.39,402.44c4.45-.02,8.23,2.04,11.2,4.94,1.47,1.46,2.61,3.15,3.47,4.98.92,1.82,1.48,3.78,1.61,5.83-4.36.62-8.46-.9-11.57-3.89-1.54-1.48-2.68-3.33-3.54-5.36-.42-1.02-.75-2.08-.97-3.17-.17-1.09-.24-2.21-.2-3.33"/>
      <path class="cls-2" d="M250.21,414.89c-4.3,1.2-7.41,3.96-9.09,7.56-.41.89-.77,1.84-.96,2.79-.18.95-.27,1.93-.26,2.91.03,1.96.42,3.95,1.42,5.7,2.01-.91,3.7-2.18,5.07-3.64,1.38-1.46,2.52-3.14,3.27-4.86,1.46-3.43,1.88-7.15.54-10.46"/>
      <path class="cls-2" d="M220.17,421.38c4.33-.56,8.59.97,11.79,3.49.81.63,1.52,1.34,2.23,2.08.72.74,1.36,1.54,1.92,2.38,1.13,1.69,1.86,3.58,2.38,5.56-2.12.61-4.26.7-6.33.31-2.05-.39-3.94-1.29-5.66-2.57-3.5-2.53-5.83-6.74-6.34-11.24"/>
      <path class="cls-2" d="M254.42,429.28c-2.02.89-3.72,2.13-5.07,3.63-1.33,1.49-2.4,3.29-2.89,5.14-.53,1.87-.66,3.86-.4,5.82.35,1.92,1.13,3.78,2.28,5.41,3.71-2.41,6.02-6.06,6.96-9.62.54-1.83.76-3.66.59-5.4-.04-.43-.11-.86-.2-1.28-.07-.43-.16-.86-.27-1.28-.23-.84-.55-1.65-.99-2.41"/>
      <path class="cls-2" d="M225.6,439.96c2.13-.6,4.28-.65,6.34-.3,2.07.34,3.95,1.11,5.81,2.11,1.82,1.01,3.43,2.3,4.74,3.83,1.39,1.49,2.51,3.2,3.21,5.13-3.99,1.86-8.36,1.56-12.22-.45-1.85-1.03-3.53-2.5-4.94-4.25-.35-.44-.68-.9-.99-1.37-.29-.48-.55-.98-.79-1.49-.48-1.02-.87-2.1-1.15-3.21"/>
      <path class="cls-2" d="M268.76,455.15c-3.31,2.89-5.09,6.84-4.96,10.73.02,3.94,1.94,7.78,5.15,10.17,1.42-1.7,2.36-3.56,2.98-5.5.62-1.94.88-3.92.81-5.79-.03-.94-.18-1.83-.34-2.74-.17-.9-.41-1.77-.74-2.58s-.75-1.58-1.25-2.28c-.48-.72-1.01-1.41-1.64-2.01"/>
      <path class="cls-2" d="M244.46,473.97c3.72-2.41,8.07-2.73,12.14-1.92,2.03.42,3.89,1.23,5.68,2.22.88.51,1.7,1.1,2.46,1.76.38.33.74.69,1.09,1.06.35.36.7.73,1.03,1.13-1.64,1.47-3.54,2.51-5.55,3.04-1.99.52-4.12.56-6.23.16-1.05-.21-2.13-.49-3.12-.93-.99-.44-1.96-.99-2.88-1.62s-1.79-1.36-2.59-2.17c-.78-.83-1.45-1.76-2.04-2.74"/>
      <path class="cls-2" d="M260.58,442.79c-3.77,2.38-5.95,5.91-6.53,9.84-.33,1.98-.05,3.91.53,5.79.3.93.67,1.86,1.19,2.7.53.83,1.16,1.61,1.87,2.31,1.65-1.47,2.89-3.19,3.76-5,.44-.9.78-1.82,1.05-2.75.29-.95.49-1.89.61-2.83.12-.94.15-1.86.1-2.76-.06-.89-.21-1.76-.38-2.63-.36-1.73-1.13-3.28-2.21-4.67"/>
      <path class="cls-2" d="M233.7,457.68c3.99-1.78,8.53-1.54,12.31-.05,1.86.77,3.76,1.74,5.3,3.04.79.64,1.48,1.37,2.14,2.13.68.75,1.29,1.57,1.8,2.46-1.84,1.22-3.85,1.94-5.93,2.17-1.04.12-2.1.12-3.15,0-1.03-.14-2.05-.39-3.06-.76-1-.37-1.99-.84-2.93-1.41-.95-.57-1.86-1.23-2.64-2.02-1.58-1.57-2.97-3.44-3.85-5.56"/>
      <path class="cls-2" d="M278.73,466.22c-1.42,1.68-2.42,3.54-2.97,5.47-.54,1.92-.71,3.99-.36,5.89.34,1.91,1.09,3.77,2.18,5.42,1.14,1.59,2.64,2.95,4.37,3.94,2.34-3.75,2.87-8.05,2.15-11.73-.32-1.88-.93-3.64-1.86-5.15-.48-.74-.98-1.46-1.55-2.12-.58-.65-1.23-1.24-1.96-1.74"/>
      <path class="cls-2" d="M257.47,488.41c3.33-2.94,7.62-3.94,11.7-3.69,2.07.11,4.08.57,5.92,1.39,1.89.75,3.62,1.83,5.07,3.27-2.84,3.37-6.9,4.97-11.19,4.83-2.11-.12-4.25-.7-6.26-1.65-1.02-.46-1.95-1.08-2.83-1.79-.88-.7-1.7-1.5-2.43-2.37"/>
      <path class="cls-1" d="M487.25,291.63c.41-.92.94-1.79,1.6-2.6.65-.79,1.38-1.48,2.18-2.05-.41.92-.95,1.79-1.6,2.6-.65.79-1.38,1.48-2.18,2.05"/>
      <path class="cls-1" d="M474.16,291.63c-.81-.57-1.54-1.26-2.18-2.05-.66-.8-1.19-1.67-1.6-2.6.81.57,1.54,1.26,2.18,2.05.66.8,1.19,1.67,1.6,2.6"/>
      <path class="cls-1" d="M487.25,308.81c.41-.92.94-1.79,1.6-2.6.65-.79,1.38-1.48,2.18-2.05-.41.92-.94,1.79-1.6,2.6-.65.79-1.38,1.48-2.18,2.05"/>
      <path class="cls-1" d="M474.16,308.81c-.81-.57-1.54-1.26-2.18-2.05-.66-.8-1.19-1.67-1.6-2.6.81.57,1.54,1.26,2.18,2.05.66.8,1.19,1.67,1.6,2.6"/>
      <path class="cls-1" d="M487.25,326c.41-.92.94-1.79,1.6-2.6.65-.79,1.38-1.48,2.18-2.05-.41.92-.95,1.79-1.6,2.6-.65.79-1.38,1.48-2.18,2.05"/>
      <path class="cls-1" d="M474.16,326c-.81-.57-1.54-1.26-2.18-2.05-.66-.8-1.19-1.67-1.6-2.6.81.57,1.54,1.26,2.18,2.05.66.8,1.19,1.67,1.6,2.6"/>
      <path class="cls-1" d="M487.25,343.19c.41-.92.94-1.79,1.6-2.6.65-.79,1.38-1.48,2.18-2.05-.41.92-.94,1.79-1.6,2.6-.65.79-1.38,1.48-2.18,2.05"/>
      <path class="cls-1" d="M474.16,343.19c-.81-.57-1.54-1.26-2.18-2.05-.66-.8-1.19-1.67-1.6-2.6.81.57,1.54,1.26,2.18,2.05.66.8,1.19,1.67,1.6,2.6"/>
      <path class="cls-1" d="M487.25,360.38c.41-.92.94-1.79,1.6-2.6.65-.79,1.38-1.48,2.18-2.05-.41.92-.95,1.79-1.6,2.6-.65.79-1.38,1.48-2.18,2.05"/>
      <path class="cls-1" d="M474.16,360.38c-.81-.57-1.54-1.26-2.18-2.05-.66-.8-1.19-1.67-1.6-2.6.81.57,1.54,1.26,2.18,2.05.66.8,1.19,1.67,1.6,2.6"/>
      <path class="cls-1" d="M487.25,377.57c.41-.92.94-1.79,1.6-2.6.65-.79,1.38-1.48,2.18-2.05-.41.92-.95,1.79-1.6,2.6-.65.79-1.38,1.48-2.18,2.05"/>
      <path class="cls-1" d="M474.16,377.57c-.81-.57-1.54-1.26-2.18-2.05-.66-.8-1.19-1.67-1.6-2.6.81.57,1.54,1.26,2.18,2.05.66.8,1.19,1.67,1.6,2.6"/>
      <path class="cls-1" d="M486.93,395.29c.44-1.04,1.04-2.03,1.78-2.96.7-.89,1.49-1.64,2.37-2.26-.45,1.13-1.04,2.16-1.74,3.05-.63.82-1.46,1.56-2.4,2.16"/>
      <path class="cls-1" d="M473.79,394.12c-.72-.58-1.42-1.29-2.13-2.15-.46-.57-.86-1.17-1.18-1.79.8.58,1.51,1.27,2.14,2.06.45.57.84,1.2,1.17,1.88"/>
      <path class="cls-1" d="M485.11,413.16c.6-1.05,1.3-1.98,2.1-2.78.88-.86,1.79-1.57,2.73-2.14-.6,1.21-1.32,2.22-2.14,3.01-.83.8-1.73,1.43-2.68,1.9"/>
      <path class="cls-1" d="M472.19,410.38c-.68-.69-1.28-1.45-1.78-2.28-.35-.58-.64-1.15-.89-1.7.68.59,1.25,1.26,1.69,1.99.4.64.72,1.32.97,1.99"/>
      <path class="cls-1" d="M480.89,430.78c.25-.31.51-.61.79-.9.68-.71,1.22-1.24,1.78-1.68.95-.75,1.97-1.35,3.03-1.8-.73,1.11-1.63,2.06-2.64,2.79-.98.73-1.97,1.25-2.96,1.58"/>
      <path class="cls-1" d="M468.54,426.16c-.63-.82-1.14-1.67-1.51-2.52-.23-.54-.42-1.09-.57-1.62.57.66,1.05,1.4,1.43,2.22.33.71.54,1.32.64,1.81,0,.04.01.07.02.11"/>
      <path class="cls-1" d="M474.24,447.61c.83-.83,1.8-1.55,2.89-2.15,1.21-.65,2.26-1.09,3.26-1.37-.92,1.01-1.96,1.86-3.05,2.46-1.02.53-2.06.88-3.11,1.05"/>
      <path class="cls-1" d="M462.66,441.18c-.45-.83-.79-1.71-1.03-2.61l-.03-.1c-.16-.55-.28-1.08-.36-1.59.5.75.86,1.52,1.06,2.25.19.68.31,1.36.36,2.05"/>
      <path class="cls-1" d="M454.95,477.46c-.42,0-.84-.03-1.24-.08,1.21-.59,2.31-.98,3.38-1.2,1.04-.21,2.07-.31,3.06-.31.15,0,.3,0,.45,0-.47.28-.95.53-1.44.75-.56.25-1.29.46-2.21.64-.65.12-1.34.19-1.99.19"/>
      <path class="cls-1" d="M444.56,467.81c-.2-.98-.28-1.95-.24-2.89.02-.54.09-1.1.19-1.66.23.82.33,1.65.3,2.48v.11c0,.65-.09,1.31-.25,1.96"/>
      <path class="cls-1" d="M465.05,463.3c.9-.62,2.01-1.19,3.39-1.77,1.04-.41,2.2-.68,3.35-.81-.38.31-.8.61-1.31.92-.72.43-1.46.79-2.2,1.06-.73.26-1.46.45-2.18.54-.3.04-.66.06-1.01.06h-.04Z"/>
      <path class="cls-1" d="M454.65,455.16c-.07-.21-.14-.43-.21-.66-.23-.76-.39-1.47-.48-2.18-.07-.54-.1-1.08-.09-1.59.35.79.59,1.63.72,2.52.1.62.12,1.25.05,1.92"/>
      <path class="cls-1" d="M443.34,490c-1.02,0-1.99-.13-2.92-.4,1.09-.37,2.25-.59,3.46-.65.36-.02.68-.03,1-.03.86,0,1.7.07,2.5.22-1.26.49-2.54.79-3.74.86h-.31Z"/>
      <path class="cls-1" d="M432.68,478.89c-.05-.96.02-1.91.21-2.85l.02-.1c.1-.6.24-1.16.41-1.69.13.91.12,1.79-.03,2.57-.12.7-.33,1.4-.6,2.07"/>
      <path class="cls-1" d="M238.67,291.63c.41-.92.94-1.79,1.6-2.6.65-.79,1.38-1.48,2.18-2.05-.41.92-.95,1.79-1.6,2.6-.65.79-1.38,1.48-2.18,2.05"/>
      <path class="cls-1" d="M225.59,291.63c-.81-.57-1.54-1.26-2.18-2.05-.66-.8-1.19-1.67-1.6-2.6.81.57,1.54,1.26,2.18,2.05.66.8,1.19,1.67,1.6,2.6"/>
      <path class="cls-1" d="M238.67,308.81c.41-.92.94-1.79,1.6-2.6.65-.79,1.38-1.48,2.18-2.05-.41.92-.95,1.79-1.6,2.6-.65.79-1.38,1.48-2.18,2.05"/>
      <path class="cls-1" d="M225.59,308.81c-.81-.57-1.54-1.26-2.18-2.05-.66-.8-1.19-1.67-1.6-2.6.81.57,1.54,1.26,2.18,2.05.66.8,1.19,1.67,1.6,2.6"/>
      <path class="cls-1" d="M238.67,326c.41-.92.94-1.79,1.6-2.6.65-.79,1.38-1.48,2.18-2.05-.41.92-.95,1.79-1.6,2.6-.65.8-1.38,1.48-2.18,2.05"/>
      <path class="cls-1" d="M225.59,326c-.81-.57-1.54-1.26-2.18-2.05-.66-.8-1.19-1.67-1.6-2.6.8.57,1.54,1.26,2.18,2.05.66.8,1.19,1.67,1.6,2.6"/>
      <path class="cls-1" d="M238.67,343.19c.41-.92.94-1.79,1.6-2.6.65-.79,1.38-1.48,2.18-2.05-.41.92-.95,1.79-1.6,2.6-.65.79-1.38,1.48-2.18,2.05"/>
      <path class="cls-1" d="M225.59,343.19c-.81-.57-1.54-1.26-2.18-2.05-.66-.8-1.19-1.67-1.6-2.6.81.57,1.54,1.26,2.18,2.05.66.8,1.19,1.67,1.6,2.6"/>
      <path class="cls-1" d="M238.67,360.38c.41-.92.94-1.79,1.6-2.6.65-.79,1.38-1.48,2.18-2.05-.41.92-.95,1.79-1.6,2.6-.65.79-1.38,1.48-2.18,2.05"/>
      <path class="cls-1" d="M225.59,360.38c-.81-.57-1.54-1.26-2.18-2.05-.66-.8-1.19-1.67-1.6-2.6.81.57,1.54,1.26,2.18,2.05.66.8,1.19,1.67,1.6,2.6"/>
      <path class="cls-1" d="M238.67,377.57c.41-.92.94-1.79,1.6-2.6.65-.79,1.38-1.48,2.18-2.05-.41.92-.95,1.79-1.6,2.6-.65.79-1.38,1.48-2.18,2.05"/>
      <path class="cls-1" d="M225.59,377.57c-.81-.57-1.54-1.26-2.18-2.05-.66-.8-1.19-1.67-1.6-2.6.81.57,1.54,1.26,2.18,2.05.66.8,1.19,1.67,1.6,2.6"/>
      <path class="cls-1" d="M239.04,394.13c.33-.68.72-1.32,1.17-1.89.62-.79,1.34-1.47,2.13-2.05-.33.63-.73,1.24-1.21,1.84-.69.84-1.38,1.53-2.1,2.11"/>
      <path class="cls-1" d="M225.91,395.29c-.94-.59-1.76-1.33-2.37-2.12-.73-.92-1.33-1.98-1.78-3.1.87.61,1.66,1.37,2.36,2.25.75.93,1.35,1.93,1.79,2.97"/>
      <path class="cls-1" d="M240.64,410.38c.24-.67.56-1.33.95-1.96.45-.74,1.03-1.42,1.71-2.02-.24.55-.53,1.11-.88,1.69-.5.83-1.1,1.6-1.78,2.29"/>
      <path class="cls-1" d="M227.72,413.16c-.96-.47-1.86-1.11-2.69-1.91-.81-.78-1.53-1.79-2.13-3,.94.57,1.86,1.29,2.75,2.16.79.79,1.49,1.71,2.08,2.75"/>
      <path class="cls-1" d="M244.31,426.04c.09-.48.31-1.1.65-1.83.38-.8.85-1.54,1.41-2.19-.16.55-.35,1.11-.6,1.67-.37.83-.87,1.67-1.49,2.48,0-.04.02-.09.02-.13"/>
      <path class="cls-1" d="M231.95,430.78c-.99-.32-1.96-.84-2.92-1.55-1.03-.74-1.94-1.71-2.68-2.82,1.05.44,2.06,1.04,3,1.78.59.45,1.12.98,1.8,1.68.28.29.55.6.8.91"/>
      <path class="cls-1" d="M250.18,441.18c.05-.68.16-1.35.34-1.99.2-.76.57-1.55,1.08-2.31-.08.51-.2,1.04-.36,1.58l-.03.1c-.24.91-.59,1.79-1.03,2.62"/>
      <path class="cls-1" d="M238.6,447.61c-1.05-.18-2.1-.53-3.13-1.06-1.07-.6-2.1-1.44-3.03-2.45,1.02.29,2.08.74,3.31,1.4,1.06.59,2.01,1.3,2.84,2.12"/>
      <path class="cls-1" d="M268.27,467.81c-.16-.65-.25-1.31-.25-1.95v-.11c-.03-.84.07-1.67.3-2.49.1.56.17,1.11.19,1.62.04.96-.04,1.95-.24,2.93"/>
      <path class="cls-1" d="M257.89,477.46c-.66,0-1.34-.06-2.02-.19-.9-.18-1.61-.38-2.17-.63-.49-.22-.98-.47-1.45-.75.15,0,.3,0,.45,0,.99,0,2.03.11,3.09.32,1.04.21,2.12.6,3.34,1.19-.4.05-.82.08-1.24.08"/>
      <path class="cls-1" d="M258.18,455.17c-.07-.65-.06-1.27.04-1.85.13-.92.38-1.78.74-2.58.01.51-.02,1.04-.09,1.58-.09.7-.24,1.42-.46,2.12-.07.25-.15.49-.23.72"/>
      <path class="cls-1" d="M247.75,463.3c-.36,0-.72-.02-1.07-.06-.67-.09-1.4-.28-2.12-.54-.74-.27-1.48-.63-2.19-1.05-.52-.31-.95-.61-1.32-.92,1.16.12,2.32.41,3.42.84,1.35.56,2.45,1.13,3.33,1.74h-.04Z"/>
      <path class="cls-1" d="M280.16,478.89c-.27-.67-.48-1.35-.6-2.04-.15-.79-.16-1.68-.03-2.6.17.52.3,1.09.4,1.68l.02.1c.18.94.25,1.9.21,2.86"/>
      <path class="cls-1" d="M269.16,490c-1.2-.07-2.48-.37-3.73-.86.8-.15,1.64-.22,2.51-.22.32,0,.64,0,.96.03,1.24.07,2.41.29,3.5.65-.92.27-1.9.4-2.92.4h-.33Z"/>
      <path class="cls-1" d="M375.83,506.81c-.29,0-.57-.01-.86-.02-1.84-.02-12.23-.08-12.75-.09-.07,0-.15.02-.22-.03-1.77-4.79-3.53-9.57-5.31-14.41-1.79,4.86-3.57,9.68-5.34,14.5h-.14c-2.44.01-11.51.05-13.61.06-.05,0-.1-.01-.16.03,3.53,3.07,7.06,6.11,10.56,9.16,0,.04,0,.05,0,.05-1.29,4.79-2.57,9.59-3.86,14.38,0,.01,0,.02-.01.04,0,0,0,.01,0,.02,0,.01,0,.03,0,.04v.02s0,0,0,.02c0,0,.01,0,.02.03.6-.41,11.98-8.15,12.56-8.54.03.01.04.01.05.02,4.1,2.81,8.21,5.62,12.32,8.42.02.02.05.03.07.04,0,0,.01,0,.02,0,.02,0-.02-.02.03,0-1.48-4.87-2.96-9.72-4.43-14.57,3.74-3.06,7.48-6.1,11.21-9.14-.05-.05-.1-.03-.14-.03"/>
      <path class="cls-1" d="M405.22,499.48c-.25,0-.5-.01-.75-.01-1.61-.02-10.68-.07-11.14-.08-.06,0-.13.02-.19-.03-1.54-4.18-3.08-8.37-4.64-12.59-1.57,4.25-3.12,8.46-4.67,12.68h-.12c-2.13.01-10.06.05-11.9.05-.04,0-.09-.01-.14.03,3.09,2.68,6.17,5.34,9.23,8,0,.03,0,.04,0,.05-1.13,4.19-2.25,8.38-3.38,12.57,0,.01,0,.02,0,.03,0,0,0,.01,0,.02,0,.01,0,.02,0,.04v.02s0,0,0,.01c0,0,0,0,.02.03.52-.35,10.46-7.12,10.98-7.46.03,0,.04.01.04.01,3.59,2.45,7.18,4.91,10.76,7.36.02.01.04.02.06.04,0,0,.01,0,.02,0,.02,0-.02-.02.03,0-1.3-4.25-2.59-8.5-3.88-12.73,3.27-2.67,6.53-5.33,9.79-7.99-.04-.04-.09-.03-.12-.03"/>
      <path class="cls-1" d="M429.25,492.39s-.07-.02-.11-.02c-.21,0-.43,0-.64-.01-1.38-.01-9.16-.06-9.55-.07-.06,0-.11.01-.16-.02-1.32-3.59-2.64-7.17-3.97-10.79-1.34,3.64-2.67,7.25-4,10.86h-.1c-1.83,0-8.62.04-10.2.04-.04,0-.07,0-.12.02,2.65,2.3,5.29,4.58,7.91,6.86,0,.03,0,.04,0,.04-.96,3.59-1.93,7.18-2.89,10.77,0,0,0,.02,0,.03,0,0,0,0,0,.01,0,0,0,.02,0,.03h0s0,.02,0,.03c0,0,0,0,.02.02.45-.3,8.97-6.1,9.41-6.4.02,0,.03.01.04.01,3.07,2.1,6.15,4.21,9.22,6.31.02.01.03.02.05.03,0,0,.01,0,.02,0,.02,0-.01-.01.02,0-1.11-3.65-2.21-7.28-3.32-10.91,2.8-2.29,5.6-4.57,8.39-6.85"/>
      <path class="cls-1" d="M341.56,499.51s-.09-.03-.12-.03c-.25,0-.5-.01-.75-.01-1.61-.02-10.68-.07-11.14-.08-.06,0-.13.02-.19-.03-1.54-4.18-3.08-8.37-4.64-12.59-1.57,4.25-3.12,8.46-4.67,12.68h-.12c-2.13.01-10.06.05-11.9.05-.04,0-.09-.01-.14.03,3.09,2.68,6.17,5.34,9.23,8,0,.04,0,.04,0,.05-1.12,4.19-2.25,8.38-3.37,12.57,0,.01,0,.02,0,.03,0,0,0,.01,0,.02,0,.01,0,.02,0,.04v.02s0,0,0,.01c0,0,0,0,.02.03.52-.35,10.46-7.12,10.98-7.46.03,0,.04.01.04.01,3.59,2.45,7.17,4.91,10.76,7.36.02.01.04.02.06.04,0,0,.01,0,.02,0,.02,0-.02-.02.03,0-1.3-4.25-2.59-8.49-3.88-12.73,3.27-2.67,6.53-5.33,9.79-7.99"/>
      <path class="cls-1" d="M312.84,492.39s-.07-.02-.11-.02c-.21,0-.43,0-.64-.01-1.38-.01-9.16-.06-9.55-.07-.06,0-.11.01-.16-.02-1.32-3.59-2.64-7.17-3.97-10.79-1.34,3.64-2.67,7.25-4,10.86h-.1c-1.83,0-8.62.04-10.2.04-.04,0-.07,0-.12.02,2.65,2.3,5.29,4.58,7.91,6.86,0,.03,0,.04,0,.04-.96,3.59-1.93,7.18-2.89,10.77,0,0,0,.02,0,.03,0,0,0,0,0,.01,0,0,0,.02,0,.03h0s0,.02,0,.03c0,0,0,0,.02.02.45-.3,8.97-6.1,9.41-6.4.02,0,.03.01.04.01,3.07,2.1,6.15,4.21,9.22,6.31.02.01.03.02.05.03,0,0,.01,0,.02,0,.02,0-.01-.01.02,0-1.11-3.65-2.21-7.28-3.32-10.91,2.8-2.29,5.6-4.57,8.39-6.85"/>
      <path class="cls-2" d="M344.15,530.62s-.02-.02-.02-.03c0,0,0-.01,0-.02v-.02s0-.03,0-.04c0,0,0-.01,0-.02,0-.01,0-.02,0-.04,1.29-4.8,2.58-9.59,3.86-14.38,0,0,0-.01,0-.05-3.5-3.04-7.02-6.09-10.56-9.16.06-.04.11-.03.16-.03,2.1,0,11.17-.05,13.61-.06h.14c1.78-4.82,3.55-9.64,5.34-14.5,1.78,4.83,3.54,9.62,5.31,14.41.07.05.14.03.22.03.52,0,10.91.07,12.75.09.29,0,.57.01.86.02.04,0,.09-.01.14.03-3.73,3.05-7.46,6.09-11.21,9.14,1.48,4.85,2.95,9.7,4.43,14.57-.05-.01,0,0-.03,0,0,0-.02,0-.02,0-.02-.01-.05-.02-.07-.04-4.1-2.81-8.21-5.62-12.32-8.42,0,0-.01,0-.05-.02-.59.39-11.97,8.13-12.56,8.54M356.61,512.84c-3,4.14-6,8.27-8.99,12.41.03.06.05.09.11.09,2.95-2.08,5.92-4.17,8.88-6.25,0-2.09,0-4.17,0-6.25M350.58,514.83c1.99-.72,3.97-1.43,5.97-2.14-.15-.06-13.13-4.04-13.26-4.07,0,0,0,0-.01,0-.02.01.01.01-.01.01,2.44,2.06,4.87,4.13,7.31,6.2M356.58,498.19s-.02,0-.02-.01c-1.18,3.3-2.36,6.59-3.54,9.89,1.2,1.5,2.4,2.99,3.6,4.47,0,0,.01,0,.02,0,.02,0,0-.02.02,0-.03-4.79-.05-9.57-.08-14.36M356.8,512.78s-.01.02-.02.03c2.89,3.98,5.77,7.97,8.66,11.95h.02c-1.1-3.44-2.21-6.87-3.33-10.31-1.78-.56-3.56-1.11-5.34-1.67M356.79,512.6s0,.02.01.02c4.44-1.44,8.87-2.87,13.31-4.31-.2-.02-.39-.01-.59,0-.93.02-1.87.05-2.8.07-.39,0-.78.01-1.18.02-.94.03-1.88.05-2.82.07-.78.02-1.56.03-2.33.05-.07,0-.15,0-.23.03-1.12,1.35-2.24,2.7-3.36,4.05"/>
      <path class="cls-2" d="M377.53,520.28s-.02-.02-.02-.03c0,0,0,0,0-.01v-.02s0-.02,0-.04c0,0,0-.01,0-.02,0-.01,0-.02,0-.03,1.13-4.19,2.25-8.38,3.38-12.57,0,0,0-.01,0-.05-3.06-2.66-6.14-5.32-9.23-8,.05-.04.1-.03.14-.03,1.84,0,9.76-.04,11.9-.05h.12c1.55-4.21,3.1-8.42,4.67-12.67,1.55,4.22,3.1,8.41,4.64,12.59.06.04.13.03.19.03.46,0,9.53.06,11.14.08.25,0,.5,0,.75.01.04,0,.08-.01.12.03-3.26,2.66-6.52,5.32-9.79,7.99,1.29,4.24,2.58,8.48,3.87,12.73-.04-.01,0,0-.03,0,0,0-.01,0-.02,0-.02-.01-.04-.02-.06-.04-3.59-2.45-7.18-4.91-10.76-7.36,0,0-.01,0-.04-.01-.51.34-10.46,7.1-10.98,7.46M388.42,504.75c-2.62,3.61-5.24,7.23-7.86,10.84.02.05.05.08.1.08,2.58-1.82,5.17-3.64,7.76-5.46,0-1.83,0-3.64,0-5.47M383.15,506.49c1.74-.63,3.47-1.24,5.22-1.87-.13-.06-11.48-3.53-11.58-3.56,0,0,0,0-.01,0-.01.01.01,0-.01,0,2.13,1.8,4.25,3.6,6.39,5.42M388.39,491.95s-.01,0-.02-.01c-1.03,2.88-2.06,5.76-3.09,8.64,1.05,1.31,2.1,2.61,3.14,3.91,0,0,0,0,.02,0,.02,0,0-.01.02,0-.02-4.19-.05-8.37-.07-12.54M388.59,504.7s-.01.02-.02.03c2.52,3.48,5.05,6.96,7.57,10.44h.02c-.97-3.01-1.94-6.01-2.91-9.01-1.55-.48-3.11-.97-4.66-1.46M388.58,504.54s0,.02.01.02c3.88-1.26,7.75-2.51,11.63-3.77-.17-.02-.34,0-.52,0-.82.02-1.63.04-2.45.06-.34,0-.68.01-1.03.02-.82.03-1.64.04-2.47.06-.68.02-1.36.03-2.04.04-.07,0-.13,0-.21.03-.98,1.17-1.96,2.35-2.94,3.54"/>
      <path class="cls-2" d="M405.41,510.19s-.01-.02-.02-.02c0,0,0,0,0-.01h0s0-.03,0-.04c0,0,0,0,0-.01,0,0,0-.02,0-.03.96-3.59,1.93-7.18,2.89-10.77,0,0,0,0,0-.04-2.62-2.28-5.26-4.56-7.91-6.86.05-.03.09-.02.12-.02,1.57,0,8.37-.03,10.2-.04h.1c1.33-3.61,2.66-7.22,4-10.86,1.33,3.62,2.65,7.21,3.98,10.79.05.04.11.02.16.02.39,0,8.17.05,9.55.07.21,0,.43,0,.64.01.03,0,.07,0,.11.03-2.8,2.28-5.59,4.56-8.39,6.85,1.11,3.63,2.21,7.27,3.32,10.91-.04,0,0,0-.02,0,0,0-.01,0-.02,0-.02-.01-.04-.02-.05-.03-3.07-2.1-6.15-4.21-9.23-6.31,0,0-.01,0-.04-.01-.44.29-8.96,6.09-9.41,6.4M414.75,496.88c-2.25,3.1-4.49,6.2-6.73,9.29.02.05.04.07.08.07,2.21-1.56,4.43-3.12,6.65-4.68,0-1.57,0-3.12,0-4.69M410.23,498.37c1.49-.54,2.98-1.07,4.47-1.61-.11-.05-9.84-3.02-9.93-3.05,0,0,0,0-.01,0-.01,0,.01,0-.01,0,1.83,1.55,3.65,3.09,5.48,4.64M414.72,485.91s-.01,0-.02,0c-.88,2.47-1.77,4.94-2.65,7.41.9,1.12,1.8,2.24,2.69,3.35,0,0,0,0,.01,0,.01,0,0-.01.02,0-.02-3.59-.04-7.17-.06-10.75M414.89,496.84s0,.01-.01.02c2.16,2.98,4.32,5.97,6.49,8.95h.02c-.83-2.58-1.66-5.15-2.49-7.73-1.33-.42-2.67-.83-4-1.25M414.88,496.7s0,.01,0,.02c3.32-1.08,6.65-2.15,9.97-3.23-.15-.02-.29,0-.44,0-.7.02-1.4.04-2.1.05-.29,0-.59,0-.88.02-.71.02-1.41.04-2.12.05-.58.01-1.17.03-1.75.04-.06,0-.11,0-.18.02-.84,1.01-1.68,2.02-2.52,3.03"/>
      <path class="cls-2" d="M313.75,520.28s-.02-.02-.02-.03c0,0,0,0,0-.01v-.02s0-.02,0-.04c0,0,0-.01,0-.02,0-.01,0-.02,0-.03,1.13-4.19,2.25-8.38,3.38-12.57,0,0,0-.01,0-.05-3.06-2.66-6.14-5.32-9.23-8,.05-.04.1-.03.14-.03,1.84,0,9.76-.04,11.9-.05h.12c1.55-4.21,3.1-8.42,4.67-12.67,1.55,4.22,3.1,8.41,4.64,12.59.06.04.13.03.19.03.46,0,9.53.06,11.14.08.25,0,.5,0,.75.01.04,0,.08-.01.12.03-3.26,2.66-6.52,5.32-9.79,7.99,1.29,4.24,2.58,8.48,3.87,12.73-.04-.01,0,0-.03,0,0,0-.01,0-.02,0-.02-.01-.04-.02-.06-.04-3.59-2.45-7.18-4.91-10.76-7.36,0,0-.01,0-.04-.01-.51.34-10.46,7.1-10.98,7.46M324.64,504.75c-2.62,3.61-5.24,7.23-7.86,10.84.02.05.05.08.1.08,2.58-1.82,5.17-3.64,7.76-5.46,0-1.83,0-3.64,0-5.47M319.37,506.49c1.74-.63,3.47-1.24,5.22-1.87-.13-.06-11.48-3.53-11.58-3.56,0,0,0,0-.01,0-.01.01.01,0-.01,0,2.13,1.8,4.25,3.6,6.39,5.42M324.61,491.95s-.01,0-.02-.01c-1.03,2.88-2.06,5.76-3.09,8.64,1.05,1.31,2.1,2.61,3.14,3.91,0,0,0,0,.02,0,.02,0,0-.01.02,0-.02-4.19-.05-8.37-.07-12.54M324.81,504.7s-.01.02-.02.03c2.52,3.48,5.05,6.96,7.57,10.44h.02c-.97-3.01-1.94-6.01-2.91-9.01-1.55-.48-3.11-.97-4.66-1.46M324.8,504.54s0,.02.01.02c3.88-1.26,7.75-2.51,11.63-3.77-.17-.02-.34,0-.52,0-.82.02-1.63.04-2.45.06-.34,0-.68.01-1.03.02-.82.03-1.64.04-2.47.06-.68.02-1.36.03-2.04.04-.07,0-.13,0-.21.03-.98,1.17-1.96,2.35-2.94,3.54"/>
      <path class="cls-2" d="M289.01,510.19s-.01-.02-.02-.02c0,0,0,0,0-.01h0s0-.03,0-.04c0,0,0,0,0-.01,0,0,0-.02,0-.03.96-3.59,1.93-7.18,2.89-10.77,0,0,0,0,0-.04-2.62-2.28-5.26-4.56-7.91-6.86.05-.03.09-.02.12-.02,1.57,0,8.37-.03,10.2-.04h.1c1.33-3.61,2.66-7.22,4-10.86,1.33,3.62,2.65,7.21,3.98,10.79.05.04.11.02.16.02.39,0,8.17.05,9.55.07.21,0,.43,0,.64.01.03,0,.07,0,.11.03-2.8,2.28-5.59,4.56-8.39,6.85,1.11,3.63,2.21,7.27,3.32,10.91-.04,0,0,0-.02,0,0,0-.01,0-.02,0-.02-.01-.04-.02-.05-.03-3.07-2.1-6.15-4.21-9.23-6.31,0,0-.01,0-.04-.01-.44.29-8.96,6.09-9.41,6.4M298.34,496.88c-2.25,3.1-4.49,6.2-6.73,9.29.02.05.04.07.08.07,2.21-1.56,4.43-3.12,6.65-4.68,0-1.57,0-3.12,0-4.69M293.82,498.37c1.49-.54,2.98-1.07,4.47-1.61-.11-.05-9.84-3.02-9.93-3.05,0,0,0,0-.01,0-.01,0,.01,0-.01,0,1.83,1.55,3.65,3.09,5.48,4.64M298.32,485.91s-.01,0-.02,0c-.88,2.47-1.77,4.94-2.65,7.41.9,1.12,1.8,2.24,2.69,3.35,0,0,0,0,.01,0,.01,0,0-.01.02,0-.02-3.59-.04-7.17-.06-10.75M298.48,496.84s0,.01-.01.02c2.16,2.98,4.32,5.97,6.49,8.95h.02c-.83-2.58-1.66-5.15-2.49-7.73-1.33-.42-2.67-.83-4-1.25M298.47,496.7s0,.01,0,.02c3.32-1.08,6.65-2.15,9.97-3.23-.15-.02-.29,0-.44,0-.7.02-1.4.04-2.1.05-.29,0-.59,0-.88.02-.71.02-1.41.04-2.12.05-.58.01-1.17.03-1.75.04-.06,0-.11,0-.18.02-.84,1.01-1.68,2.02-2.52,3.03"/>
      <path class="cls-2" d="M346.81,477.83h-1.74c-45.19,0-81.92-36.73-81.92-81.88v-110.03h83.66v28.25h-3.49v-24.76h-76.69v106.54c0,42.65,34.24,77.46,76.69,78.37v-30.89h3.49v34.4Z"/>
      <path class="cls-2" d="M368.2,477.83h-1.74l-.04-1.74v-32.66h3.49v30.89c42.46-.93,76.69-35.73,76.69-78.37v-106.54h-76.69v24.76h-3.49v-28.25h83.66v110.03c0,45.15-36.73,81.88-81.88,81.88"/>
      <polygon class="cls-2" points="414.16 421.34 376.35 373.26 414.3 335.75 416.76 338.24 381.02 373.56 416.9 419.19 414.16 421.34"/>
      <rect class="cls-2" x="366.42" y="336.99" width="3.49" height="83.27"/>
      <rect class="cls-2" x="343.32" y="336.99" width="3.49" height="83.27"/>
      <path class="cls-2" d="M321.41,422.01c-14.01,0-25.4-11.39-25.4-25.4v-59.62h3.49v59.62c0,12.08,9.83,21.91,21.91,21.91s21.91-9.83,21.91-21.91v-59.62h3.49v59.62c0,14-11.39,25.4-25.4,25.4"/>
      <path class="cls-1" d="M345.56,476.58h-.5c-44.5,0-80.67-36.17-80.67-80.63v-108.78h81.17v27h-.99v-26.01h-79.18v107.79c0,43.76,35.48,79.39,79.18,79.64v-32.16h.99v33.15Z"/>
      <path class="cls-1" d="M368.2,476.58h-.5l-.04-.5v-32.65h.99v32.16c43.72-.27,79.18-35.89,79.18-79.64v-107.79h-79.18v26.01h-.99v-27h81.17v108.78c0,44.46-36.17,80.63-80.63,80.63"/>
      <polygon class="cls-1" points="415.14 420.57 378.02 373.37 415.18 336.64 415.88 337.35 379.35 373.45 415.92 419.96 415.14 420.57"/>
      <rect class="cls-1" x="367.67" y="336.99" width=".99" height="83.27"/>
      <rect class="cls-1" x="344.57" y="336.99" width=".99" height="83.27"/>
      <path class="cls-1" d="M321.41,420.76c-13.32,0-24.15-10.83-24.15-24.15v-59.62h.99v59.62c0,12.77,10.39,23.16,23.16,23.16s23.16-10.39,23.16-23.16v-59.62h.99v59.62c0,13.32-10.83,24.15-24.15,24.15"/>
      <polygon class="cls-2" points="475.95 248.7 356.61 270.14 496.37 270.14 475.95 248.7"/>
      <polygon class="cls-2" points="435.8 225.18 356.61 263.67 451.82 242 435.8 225.18"/>
      <polygon class="cls-2" points="399.63 209.9 356.61 256.56 413.6 221.3 399.63 209.9"/>
      <polygon class="cls-2" points="372.35 206.84 356.62 245.78 384.3 209.7 372.35 206.84"/>
      <path class="cls-1" d="M486.06,264.78c-4.39-2.48-8.42-5.38-12.4-8.41-.52-.33-.97-.38-1.6-.26-1.31.21-2.73.44-4.03.63-14.61,1.8-49.76,6.3-64.8,8.36,16.67-2.68,50.91-8.79,67.08-11.47.61-.06,1.57-.27,2.22-.26,1.47-.07,2.75.9,3.76,1.86,3.43,3.01,6.74,6.1,9.76,9.56"/>
      <path class="cls-1" d="M444.6,239.61c-2.91-1.76-5.63-3.76-8.33-5.79-.29-.22-.47-.33-.74-.43-.51-.19-1.09-.17-1.58.02-1.29.54-2.72,1.17-4.09,1.72-11.32,4.41-38.5,15.17-50.12,19.86,12.82-5.47,39.07-17.07,51.48-22.43,0,0,2.13-.86,2.13-.86,1.34-.46,2.97-.11,3.97.86,2.51,2.25,4.99,4.54,7.29,7.05"/>
      <path class="cls-1" d="M409.32,221.76c-2.99-1.23-5.74-2.86-8.44-4.56-.39-.25-.54-.35-.82-.39-.69-.1-1.03.37-1.56.86l-.88.81c-2.32,2.08-14.84,14.07-17.37,16.48,2.5-2.58,14.49-14.85,16.65-17.2.89-.88,1.79-2.36,3.29-2.17.54.02,1.08.37,1.35.55,2.71,1.69,5.36,3.46,7.77,5.63"/>
      <path class="cls-1" d="M381.03,211.05c-1.97.07-3.94-.03-5.9-.22-.87-.16-1.1.69-1.37,1.3-1.45,3.16-6.03,13.6-7.5,16.93,1.4-3.45,5.64-13.89,6.91-17.18l.31-.78c.23-.67,1.06-1.07,1.71-.94,1.96.19,3.91.45,5.83.89"/>
      <polygon class="cls-2" points="237.28 248.7 356.61 270.14 216.86 270.14 237.28 248.7"/>
      <polygon class="cls-2" points="277.43 225.18 356.61 263.67 261.41 242 277.43 225.18"/>
      <polygon class="cls-2" points="313.6 209.9 356.61 256.56 299.63 221.3 313.6 209.9"/>
      <polygon class="cls-2" points="340.88 206.84 356.61 245.78 328.93 209.7 340.88 206.84"/>
      <path class="cls-1" d="M303.91,221.76c2.41-2.16,5.07-3.93,7.77-5.63.27-.18.82-.53,1.35-.55,1.5-.19,2.4,1.29,3.29,2.17,2.11,2.3,14.22,14.7,16.65,17.2-2.61-2.48-14.99-14.34-17.37-16.48l-.88-.81c-.54-.49-.87-.96-1.56-.86-.28.04-.43.14-.82.39-2.7,1.71-5.45,3.33-8.44,4.56"/>
      <path class="cls-1" d="M332.2,211.05c1.92-.44,3.88-.71,5.83-.89.65-.13,1.48.27,1.71.94l.31.78c1.25,3.24,5.54,13.81,6.91,17.18-1.49-3.41-6.02-13.73-7.5-16.93-.27-.61-.5-1.47-1.37-1.3-1.96.18-3.93.29-5.9.22"/>
      <path class="cls-1" d="M227.16,264.78c3.03-3.46,6.34-6.55,9.76-9.56,1.01-.95,2.29-1.93,3.76-1.86.65,0,1.61.2,2.22.26,16.01,2.65,50.63,8.82,67.08,11.46-15.27-2.09-50.02-6.53-64.8-8.36-1.3-.18-2.73-.41-4.03-.63-.63-.12-1.08-.06-1.6.26-3.98,3.03-8.01,5.93-12.4,8.41"/>
      <path class="cls-1" d="M268.63,239.61c2.29-2.51,4.77-4.8,7.29-7.05,1-.96,2.63-1.32,3.97-.86l2.13.86c12.29,5.3,38.84,17.04,51.48,22.43-11.8-4.75-38.67-15.39-50.12-19.86-1.37-.55-2.81-1.19-4.09-1.72-.5-.19-1.07-.2-1.58-.02-.27.1-.46.21-.74.43-2.7,2.03-5.42,4.02-8.33,5.79"/>
    </g>
  </g>
</svg>